<svg width="148" height="34" viewBox="0 0 148 34" fill="none" xmlns="http://www.w3.org/2000/svg">
<g clip-path="url(#clip0_46_1425)">
<path d="M53.6998 5.24023H56.4009L65.8081 27.4605H62.3308L60.1265 21.9682H49.6637L47.4905 27.4605H44.0132L53.6998 5.24023ZM59.0399 19.3319L54.9416 9.13192H54.8796L50.7193 19.3319H59.0399Z" fill="#ffffff"/>
<path d="M75.8398 15.0323H71.8347V21.78C71.8347 22.1985 71.845 22.617 71.8657 23.0355C71.8863 23.433 71.9589 23.799 72.0831 24.1339C72.2279 24.4477 72.4348 24.7092 72.7039 24.9186C72.9938 25.1068 73.4078 25.201 73.9459 25.201C74.277 25.201 74.6186 25.1695 74.9703 25.1068C75.3223 25.0439 75.643 24.929 75.9327 24.7615V27.335C75.6017 27.5235 75.1671 27.649 74.6289 27.7117C74.1114 27.7955 73.7078 27.8372 73.4181 27.8372C72.3418 27.8372 71.5034 27.6908 70.9032 27.3979C70.3238 27.0839 69.8889 26.6866 69.5992 26.2052C69.3301 25.7239 69.1646 25.1906 69.1026 24.6046C69.0611 23.9979 69.0404 23.391 69.0404 22.7844V15.0323H65.8115V12.5843H69.0404V8.41016H71.8347V12.5843H75.8398V15.0323Z" fill="#ffffff"/>
<path d="M79.4443 3.73438H82.2386V14.8759H82.3006C82.6525 14.0808 83.263 13.4427 84.1324 12.9615C85.0016 12.4593 86.0056 12.2082 87.1439 12.2082C87.8478 12.2082 88.5205 12.3233 89.1619 12.5535C89.8243 12.7627 90.3934 13.0975 90.8696 13.5578C91.3664 14.0181 91.7597 14.6144 92.0494 15.3467C92.3392 16.0581 92.484 16.9055 92.484 17.8888V27.4611H89.6898V18.6735C89.6898 17.983 89.5968 17.3972 89.4104 16.9159C89.2242 16.4138 88.9757 16.0162 88.6653 15.7233C88.3547 15.4095 87.9927 15.1898 87.5787 15.0642C87.1854 14.9178 86.7715 14.8445 86.3367 14.8445C85.7572 14.8445 85.2191 14.9387 84.7222 15.127C84.2256 15.3153 83.7908 15.6187 83.4184 16.0372C83.0458 16.4347 82.7561 16.9473 82.549 17.575C82.3421 18.2027 82.2386 18.9455 82.2386 19.8033V27.4611H79.4443V3.73438Z" fill="#ffffff"/>
<path d="M98.8073 21.0585C98.8073 21.7071 98.9419 22.3033 99.211 22.8473C99.5007 23.3705 99.8733 23.8202 100.329 24.1969C100.784 24.5736 101.312 24.8665 101.912 25.0758C102.512 25.2849 103.133 25.3896 103.775 25.3896C104.644 25.3896 105.4 25.1909 106.041 24.7933C106.683 24.3749 107.273 23.8309 107.811 23.1613L109.922 24.7933C108.37 26.8229 106.197 27.8376 103.402 27.8376C102.243 27.8376 101.187 27.6389 100.235 27.2413C99.3039 26.8438 98.5071 26.2998 97.8447 25.6093C97.2032 24.8978 96.7064 24.0713 96.3545 23.1298C96.0027 22.1674 95.8267 21.1317 95.8267 20.0228C95.8267 18.9139 96.0131 17.8886 96.3857 16.9471C96.779 15.9846 97.3066 15.1582 97.9689 14.4677C98.6519 13.7563 99.4591 13.2019 100.391 12.8043C101.322 12.4068 102.336 12.208 103.433 12.208C104.737 12.208 105.834 12.4382 106.724 12.8985C107.635 13.3588 108.38 13.9656 108.96 14.7188C109.539 15.4511 109.953 16.288 110.201 17.2296C110.47 18.1502 110.605 19.0917 110.605 20.0542V21.0585H98.8073ZM107.625 18.7988C107.604 18.1711 107.5 17.5957 107.314 17.0726C107.149 16.5496 106.89 16.0997 106.538 15.7231C106.186 15.3256 105.741 15.0222 105.203 14.8129C104.685 14.5828 104.075 14.4677 103.371 14.4677C102.688 14.4677 102.057 14.6037 101.477 14.8757C100.918 15.1268 100.442 15.4616 100.049 15.88C99.6559 16.2985 99.3455 16.7693 99.1177 17.2923C98.9107 17.7945 98.8073 18.2966 98.8073 18.7988H107.625Z" fill="#ffffff"/>
<path d="M114.165 3.73438H116.959V27.4611H114.165V3.73438Z" fill="#ffffff"/>
<path d="M121.469 14.4049C122.255 13.6726 123.166 13.1286 124.201 12.7729C125.236 12.3963 126.27 12.208 127.305 12.208C128.382 12.208 129.303 12.344 130.069 12.616C130.855 12.888 131.497 13.2542 131.993 13.7145C132.49 14.1748 132.852 14.7083 133.08 15.3151C133.328 15.9009 133.453 16.5182 133.453 17.1668V24.7618C133.453 25.2849 133.463 25.7662 133.484 26.2056C133.504 26.6449 133.535 27.0633 133.577 27.4609H131.093C131.031 26.7078 131 25.9545 131 25.2013H130.938C130.317 26.1638 129.582 26.8438 128.734 27.2413C127.885 27.6389 126.902 27.8376 125.784 27.8376C125.101 27.8376 124.449 27.7433 123.828 27.5551C123.207 27.3669 122.659 27.0842 122.183 26.7078C121.727 26.3311 121.365 25.8709 121.096 25.3269C120.827 24.7618 120.692 24.1133 120.692 23.3809C120.692 22.4185 120.899 21.6129 121.313 20.9643C121.748 20.3157 122.327 19.7926 123.052 19.3951C123.797 18.9766 124.656 18.6837 125.629 18.5163C126.622 18.328 127.678 18.2339 128.796 18.2339H130.845V17.6062C130.845 17.2296 130.772 16.8529 130.627 16.4763C130.483 16.0997 130.265 15.7649 129.975 15.472C129.686 15.1582 129.323 14.9176 128.889 14.7502C128.454 14.5619 127.937 14.4677 127.336 14.4677C126.798 14.4677 126.322 14.52 125.908 14.6246C125.515 14.7293 125.153 14.8653 124.822 15.0326C124.49 15.1791 124.19 15.3569 123.921 15.5662C123.652 15.7754 123.393 15.9742 123.145 16.1625L121.469 14.4049ZM129.354 20.3053C128.692 20.3053 128.009 20.3471 127.305 20.4308C126.622 20.4936 125.991 20.6296 125.411 20.8388C124.853 21.048 124.387 21.3409 124.014 21.7176C123.663 22.0942 123.487 22.5753 123.487 23.1613C123.487 24.0191 123.766 24.6362 124.325 25.0129C124.904 25.3896 125.681 25.5778 126.653 25.5778C127.419 25.5778 128.071 25.4522 128.609 25.2013C129.148 24.9293 129.582 24.584 129.913 24.1656C130.244 23.7471 130.483 23.2869 130.627 22.7847C130.772 22.2616 130.845 21.7489 130.845 21.2468V20.3053H129.354Z" fill="#ffffff"/>
<path d="M145.33 16.3194C144.999 15.9009 144.585 15.5557 144.088 15.2837C143.612 14.9908 143.022 14.8443 142.318 14.8443C141.656 14.8443 141.076 14.9908 140.58 15.2837C140.103 15.5557 139.866 15.9637 139.866 16.5077C139.866 16.9471 140 17.3028 140.269 17.5748C140.559 17.8468 140.89 18.0665 141.263 18.2339C141.656 18.4013 142.07 18.5268 142.504 18.6105C142.939 18.6942 143.312 18.7674 143.622 18.8302C144.222 18.9766 144.781 19.1545 145.299 19.3637C145.837 19.5729 146.292 19.8449 146.665 20.1797C147.058 20.5145 147.358 20.9225 147.565 21.4037C147.793 21.8849 147.907 22.4709 147.907 23.1613C147.907 23.9982 147.731 24.72 147.379 25.3269C147.027 25.9127 146.572 26.3938 146.013 26.7705C145.454 27.1471 144.812 27.4191 144.088 27.5865C143.384 27.7538 142.67 27.8376 141.946 27.8376C140.725 27.8376 139.648 27.6493 138.717 27.2727C137.806 26.896 136.989 26.2056 136.264 25.2013L138.375 23.4438C138.831 23.904 139.338 24.312 139.897 24.6678C140.455 25.0233 141.138 25.2013 141.946 25.2013C142.298 25.2013 142.649 25.1698 143.001 25.1071C143.374 25.0233 143.695 24.9082 143.964 24.7618C144.253 24.5945 144.481 24.3958 144.647 24.1656C144.833 23.9145 144.926 23.632 144.926 23.3182C144.926 22.8998 144.792 22.5545 144.523 22.2825C144.274 22.0105 143.964 21.8013 143.591 21.6548C143.239 21.4874 142.856 21.3619 142.442 21.2782C142.049 21.1736 141.697 21.0899 141.387 21.0271C140.787 20.8806 140.217 20.7133 139.679 20.5249C139.141 20.3366 138.665 20.0856 138.251 19.7717C137.837 19.4579 137.506 19.0603 137.258 18.5791C137.009 18.0979 136.885 17.5016 136.885 16.7902C136.885 16.016 137.04 15.3465 137.351 14.7816C137.682 14.1957 138.106 13.7145 138.624 13.3379C139.162 12.9613 139.762 12.6788 140.424 12.4905C141.107 12.3022 141.79 12.208 142.473 12.208C143.467 12.208 144.419 12.3963 145.33 12.7729C146.241 13.1496 146.965 13.7773 147.503 14.656L145.33 16.3194Z" fill="#ffffff"/>
<path d="M16.817 28.7693C23.2471 28.7693 28.4597 23.5 28.4597 17C28.4597 10.5 23.2471 5.23078 16.817 5.23078C10.387 5.23078 5.17448 10.5 5.17448 17C5.17448 23.5 10.387 28.7693 16.817 28.7693ZM16.817 34C7.52924 34 0 26.3889 0 17C0 7.61116 7.52924 0 16.817 0C26.1049 0 33.6341 7.61116 33.6341 17C33.6341 26.3889 26.1049 34 16.817 34Z" fill="#FC5378"/>
</g>
<defs>
<clipPath id="clip0_46_1425">
<rect width="147.946" height="34" fill="white"/>
</clipPath>
</defs>
</svg>
