<svg width="148" height="34" viewBox="0 0 148 34" fill="none" xmlns="http://www.w3.org/2000/svg">
<g clip-path="url(#clip0_23_1239)">
<path d="M53.6998 5.24048H56.4009L65.8081 27.4607H62.3308L60.1265 21.9685H49.6637L47.4905 27.4607H44.0132L53.6998 5.24048ZM59.0399 19.3322L54.9416 9.13217H54.8796L50.7193 19.3322H59.0399Z" fill="#161616"/>
<path d="M75.8398 15.0323H71.8347V21.78C71.8347 22.1985 71.845 22.617 71.8657 23.0355C71.8863 23.433 71.9589 23.799 72.0831 24.1339C72.2279 24.4477 72.4348 24.7092 72.7039 24.9186C72.9938 25.1068 73.4078 25.201 73.9459 25.201C74.277 25.201 74.6186 25.1695 74.9703 25.1068C75.3223 25.0439 75.643 24.929 75.9327 24.7615V27.335C75.6017 27.5235 75.1671 27.649 74.6289 27.7117C74.1114 27.7955 73.7078 27.8372 73.4181 27.8372C72.3418 27.8372 71.5034 27.6908 70.9032 27.3979C70.3238 27.0839 69.8889 26.6866 69.5992 26.2052C69.3301 25.7239 69.1646 25.1906 69.1026 24.6046C69.0611 23.9979 69.0404 23.391 69.0404 22.7844V15.0323H65.8115V12.5843H69.0404V8.41016H71.8347V12.5843H75.8398V15.0323Z" fill="#161616"/>
<path d="M79.4443 3.73389H82.2386V14.8754H82.3006C82.6525 14.0804 83.263 13.4422 84.1324 12.961C85.0016 12.4588 86.0056 12.2077 87.1439 12.2077C87.8478 12.2077 88.5205 12.3228 89.1619 12.553C89.8243 12.7622 90.3934 13.097 90.8696 13.5573C91.3664 14.0176 91.7597 14.6139 92.0494 15.3462C92.3392 16.0576 92.484 16.905 92.484 17.8884V27.4606H89.6898V18.673C89.6898 17.9825 89.5968 17.3967 89.4104 16.9154C89.2242 16.4133 88.9757 16.0157 88.6653 15.7228C88.3547 15.409 87.9927 15.1893 87.5787 15.0637C87.1854 14.9173 86.7715 14.844 86.3367 14.844C85.7572 14.844 85.2191 14.9382 84.7222 15.1265C84.2256 15.3148 83.7908 15.6182 83.4184 16.0367C83.0458 16.4342 82.7561 16.9468 82.549 17.5745C82.3421 18.2022 82.2386 18.945 82.2386 19.8028V27.4606H79.4443V3.73389Z" fill="#161616"/>
<path d="M98.8073 21.0582C98.8073 21.7069 98.9419 22.3031 99.211 22.8471C99.5007 23.3702 99.8733 23.82 100.329 24.1967C100.784 24.5733 101.312 24.8662 101.912 25.0755C102.512 25.2847 103.133 25.3893 103.775 25.3893C104.644 25.3893 105.4 25.1907 106.041 24.7931C106.683 24.3747 107.273 23.8307 107.811 23.1611L109.922 24.7931C108.37 26.8227 106.197 27.8373 103.402 27.8373C102.243 27.8373 101.187 27.6387 100.235 27.2411C99.3039 26.8435 98.5071 26.2995 97.8447 25.6091C97.2032 24.8975 96.7064 24.0711 96.3545 23.1295C96.0027 22.1672 95.8267 21.1315 95.8267 20.0225C95.8267 18.9136 96.0131 17.8884 96.3857 16.9469C96.779 15.9844 97.3066 15.1579 97.9689 14.4675C98.6519 13.7561 99.4591 13.2016 100.391 12.8041C101.322 12.4065 102.336 12.2078 103.433 12.2078C104.737 12.2078 105.834 12.4379 106.724 12.8982C107.635 13.3585 108.38 13.9653 108.96 14.7185C109.539 15.4509 109.953 16.2878 110.201 17.2293C110.47 18.1499 110.605 19.0915 110.605 20.0539V21.0582H98.8073ZM107.625 18.7985C107.604 18.1709 107.5 17.5955 107.314 17.0724C107.149 16.5493 106.89 16.0995 106.538 15.7229C106.186 15.3253 105.741 15.0219 105.203 14.8127C104.685 14.5825 104.075 14.4675 103.371 14.4675C102.688 14.4675 102.057 14.6035 101.477 14.8755C100.918 15.1265 100.442 15.4613 100.049 15.8798C99.6559 16.2982 99.3455 16.769 99.1177 17.2921C98.9107 17.7942 98.8073 18.2964 98.8073 18.7985H107.625Z" fill="#161616"/>
<path d="M114.165 3.73389H116.959V27.4606H114.165V3.73389Z" fill="#161616"/>
<path d="M121.469 14.4047C122.255 13.6724 123.166 13.1284 124.201 12.7727C125.236 12.3961 126.27 12.2078 127.305 12.2078C128.382 12.2078 129.303 12.3438 130.069 12.6158C130.855 12.8878 131.497 13.2539 131.993 13.7142C132.49 14.1745 132.852 14.7081 133.08 15.3149C133.328 15.9007 133.453 16.5179 133.453 17.1665V24.7615C133.453 25.2847 133.463 25.766 133.484 26.2053C133.504 26.6447 133.535 27.0631 133.577 27.4607H131.093C131.031 26.7075 131 25.9542 131 25.2011H130.938C130.317 26.1635 129.582 26.8435 128.734 27.2411C127.885 27.6387 126.902 27.8373 125.784 27.8373C125.101 27.8373 124.449 27.7431 123.828 27.5549C123.207 27.3667 122.659 27.084 122.183 26.7075C121.727 26.3309 121.365 25.8707 121.096 25.3267C120.827 24.7615 120.692 24.1131 120.692 23.3807C120.692 22.4182 120.899 21.6127 121.313 20.9641C121.748 20.3155 122.327 19.7924 123.052 19.3949C123.797 18.9764 124.656 18.6835 125.629 18.5161C126.622 18.3278 127.678 18.2336 128.796 18.2336H130.845V17.6059C130.845 17.2293 130.772 16.8527 130.627 16.4761C130.483 16.0995 130.265 15.7647 129.975 15.4718C129.686 15.1579 129.323 14.9173 128.889 14.7499C128.454 14.5616 127.937 14.4675 127.336 14.4675C126.798 14.4675 126.322 14.5198 125.908 14.6244C125.515 14.729 125.153 14.865 124.822 15.0324C124.49 15.1789 124.19 15.3567 123.921 15.5659C123.652 15.7752 123.393 15.9739 123.145 16.1622L121.469 14.4047ZM129.354 20.305C128.692 20.305 128.009 20.3469 127.305 20.4305C126.622 20.4933 125.991 20.6293 125.411 20.8385C124.853 21.0478 124.387 21.3407 124.014 21.7173C123.663 22.0939 123.487 22.5751 123.487 23.1611C123.487 24.0189 123.766 24.636 124.325 25.0127C124.904 25.3893 125.681 25.5775 126.653 25.5775C127.419 25.5775 128.071 25.452 128.609 25.2011C129.148 24.9291 129.582 24.5838 129.913 24.1653C130.244 23.7469 130.483 23.2867 130.627 22.7844C130.772 22.2613 130.845 21.7487 130.845 21.2465V20.305H129.354Z" fill="#161616"/>
<path d="M145.33 16.3192C144.999 15.9007 144.585 15.5555 144.088 15.2835C143.612 14.9905 143.022 14.8441 142.318 14.8441C141.656 14.8441 141.076 14.9905 140.58 15.2835C140.103 15.5555 139.866 15.9635 139.866 16.5075C139.866 16.9469 140 17.3025 140.269 17.5745C140.559 17.8465 140.89 18.0662 141.263 18.2336C141.656 18.401 142.07 18.5265 142.504 18.6102C142.939 18.6939 143.312 18.7672 143.622 18.8299C144.222 18.9764 144.781 19.1542 145.299 19.3635C145.837 19.5727 146.292 19.8447 146.665 20.1795C147.058 20.5142 147.358 20.9222 147.565 21.4035C147.793 21.8847 147.907 22.4707 147.907 23.1611C147.907 23.998 147.731 24.7198 147.379 25.3267C147.027 25.9124 146.572 26.3935 146.013 26.7702C145.454 27.1469 144.812 27.4189 144.088 27.5862C143.384 27.7535 142.67 27.8373 141.946 27.8373C140.725 27.8373 139.648 27.6491 138.717 27.2724C137.806 26.8958 136.989 26.2053 136.264 25.2011L138.375 23.4435C138.831 23.9038 139.338 24.3118 139.897 24.6675C140.455 25.0231 141.138 25.2011 141.946 25.2011C142.298 25.2011 142.649 25.1695 143.001 25.1069C143.374 25.0231 143.695 24.908 143.964 24.7615C144.253 24.5942 144.481 24.3955 144.647 24.1653C144.833 23.9142 144.926 23.6318 144.926 23.318C144.926 22.8995 144.792 22.5542 144.523 22.2822C144.274 22.0102 143.964 21.801 143.591 21.6545C143.239 21.4872 142.856 21.3616 142.442 21.2779C142.049 21.1733 141.697 21.0896 141.387 21.0269C140.787 20.8804 140.217 20.713 139.679 20.5247C139.141 20.3364 138.665 20.0853 138.251 19.7715C137.837 19.4576 137.506 19.0601 137.258 18.5789C137.009 18.0976 136.885 17.5013 136.885 16.7899C136.885 16.0158 137.04 15.3462 137.351 14.7813C137.682 14.1955 138.106 13.7142 138.624 13.3376C139.162 12.961 139.762 12.6785 140.424 12.4902C141.107 12.3019 141.79 12.2078 142.473 12.2078C143.467 12.2078 144.419 12.3961 145.33 12.7727C146.241 13.1493 146.965 13.777 147.503 14.6558L145.33 16.3192Z" fill="#161616"/>
<path d="M16.817 28.7693C23.2471 28.7693 28.4597 23.5 28.4597 17C28.4597 10.5 23.2471 5.23078 16.817 5.23078C10.387 5.23078 5.17448 10.5 5.17448 17C5.17448 23.5 10.387 28.7693 16.817 28.7693ZM16.817 34C7.52924 34 0 26.3889 0 17C0 7.61116 7.52924 0 16.817 0C26.1049 0 33.6341 7.61116 33.6341 17C33.6341 26.3889 26.1049 34 16.817 34Z" fill="#FC5378"/>
</g>
<defs>
<clipPath id="clip0_23_1239">
<rect width="147.946" height="34" fill="white"/>
</clipPath>
</defs>
</svg>
