<svg xmlns="http://www.w3.org/2000/svg" width="100%" viewBox="0 0 564 152" fill="var(--ui-styles--nav-dark)" class="nav_logo"><path d="M76 128.615C105.059 128.615 128.615 105.059 128.615 75.9999C128.615 46.9414 105.059 23.3846 76 23.3846C46.9413 23.3846 23.3846 46.9414 23.3846 75.9999C23.3846 105.059 46.9413 128.615 76 128.615ZM76 152C34.0264 152 0 117.974 0 75.9999C0 34.0264 34.0264 0 76 0C117.974 0 152 34.0264 152 75.9999C152 117.974 117.974 152 76 152Z" fill="#FC5378"></path><g class="nav_logo-text-1" style="transform: translate3d(0px, 0%, 0px) scale3d(1, 1, 1) rotateX(0deg) rotateY(0deg) rotateZ(0deg) skew(0deg, 0deg); transform-style: preserve-3d;"><path d="M219.022 17.0928H227.394L256.55 84.8465H245.773L238.941 68.0994H206.513L199.777 84.8465H189L219.022 17.0928ZM235.573 60.0609L222.871 28.9592H222.679L209.785 60.0609H235.573Z"></path><path d="M287.64 46.951H275.227V67.5257C275.227 68.8017 275.259 70.0777 275.323 71.3537C275.387 72.5658 275.612 73.6824 275.997 74.703C276.446 75.6601 277.087 76.4574 277.921 77.0956C278.819 77.6698 280.102 77.9567 281.77 77.9567C282.796 77.9567 283.855 77.8608 284.945 77.6698C286.036 77.4784 287.03 77.1275 287.928 76.6168V84.4643C286.902 85.0381 285.555 85.421 283.887 85.6124C282.283 85.8677 281.032 85.9952 280.134 85.9952C276.798 85.9952 274.201 85.5488 272.34 84.6557C270.544 83.6986 269.197 82.4865 268.298 81.0191C267.465 79.5517 266.952 77.9248 266.759 76.1385C266.631 74.2882 266.567 72.4383 266.567 70.5881V46.951H256.559V39.4864H266.567V26.7588H275.227V39.4864H287.64V46.951Z"></path><path d="M298.813 12.5H307.473V46.4723H307.666C308.756 44.0482 310.649 42.1024 313.343 40.635C316.037 39.1036 319.149 38.3382 322.677 38.3382C324.858 38.3382 326.943 38.6891 328.931 39.391C330.984 40.0288 332.748 41.0498 334.224 42.4533C335.763 43.8568 336.982 45.6751 337.88 47.9078C338.778 50.0769 339.227 52.6609 339.227 55.6593V84.8472H330.567V58.0519C330.567 55.9467 330.279 54.1603 329.701 52.6929C329.124 51.1615 328.354 49.9495 327.392 49.0563C326.429 48.0992 325.307 47.4294 324.024 47.0466C322.805 46.6002 321.522 46.3768 320.175 46.3768C318.379 46.3768 316.711 46.6637 315.171 47.238C313.632 47.8123 312.285 48.7374 311.13 50.0134C309.975 51.2255 309.077 52.7884 308.436 54.7026C307.794 56.6164 307.473 58.8811 307.473 61.4971V84.8472H298.813V12.5Z"></path><path d="M358.826 65.3244C358.826 67.3021 359.243 69.1204 360.076 70.7793C360.974 72.3742 362.129 73.7457 363.541 74.8942C364.952 76.0427 366.588 76.9359 368.448 77.5737C370.308 78.2119 372.233 78.5308 374.222 78.5308C376.916 78.5308 379.257 77.9246 381.246 76.7125C383.235 75.4365 385.063 73.7776 386.73 71.7364L393.274 76.7125C388.463 82.9007 381.727 85.995 373.067 85.995C369.474 85.995 366.203 85.3892 363.252 84.1767C360.365 82.9647 357.895 81.3058 355.843 79.2006C353.854 77.0314 352.314 74.5114 351.224 71.6404C350.133 68.706 349.588 65.5477 349.588 62.1665C349.588 58.7853 350.165 55.659 351.32 52.7881C352.539 49.8536 354.175 47.3336 356.227 45.228C358.345 43.0588 360.846 41.3684 363.733 40.1563C366.62 38.944 369.763 38.3379 373.163 38.3379C377.204 38.3379 380.604 39.0397 383.363 40.4432C386.185 41.8467 388.495 43.697 390.291 45.9936C392.087 48.2268 393.37 50.7784 394.14 53.6493C394.974 56.4567 395.391 59.3276 395.391 62.262V65.3244H358.826ZM386.153 58.4344C386.089 56.5202 385.768 54.7658 385.191 53.1709C384.678 51.576 383.876 50.2045 382.785 49.056C381.695 47.8439 380.316 46.9188 378.648 46.2806C377.044 45.5788 375.152 45.228 372.971 45.228C370.853 45.228 368.897 45.6428 367.101 46.472C365.369 47.2377 363.893 48.2583 362.675 49.5343C361.455 50.8103 360.494 52.2458 359.788 53.8407C359.146 55.3721 358.826 56.903 358.826 58.4344H386.153Z"></path><path d="M406.424 12.5H415.084V84.8472H406.424V12.5Z"></path><path d="M429.059 45.0365C431.497 42.8038 434.319 41.145 437.527 40.0604C440.734 38.9121 443.942 38.3379 447.149 38.3379C450.485 38.3379 453.34 38.7526 455.713 39.582C458.152 40.4113 460.141 41.5278 461.68 42.9313C463.219 44.3348 464.34 45.9617 465.047 47.8119C465.819 49.5983 466.2 51.4805 466.2 53.4579V76.6166C466.2 78.2119 466.232 79.6789 466.297 81.0189C466.361 82.3584 466.457 83.6344 466.586 84.8469H458.887C458.698 82.5498 458.602 80.2532 458.602 77.9565H458.409C456.484 80.8914 454.206 82.9647 451.575 84.1767C448.945 85.3892 445.898 85.995 442.434 85.995C440.317 85.995 438.297 85.7081 436.372 85.1338C434.448 84.5595 432.748 83.6984 431.272 82.5498C429.861 81.4017 428.738 79.9982 427.904 78.3394C427.07 76.6166 426.654 74.6388 426.654 72.4061C426.654 69.4713 427.295 67.0152 428.578 65.0374C429.925 63.0597 431.721 61.4648 433.966 60.2527C436.276 58.9767 438.938 58.0835 441.953 57.5732C445.032 56.9989 448.304 56.7116 451.768 56.7116H458.12V54.7978C458.12 53.6493 457.894 52.5012 457.444 51.3526C456.994 50.2045 456.323 49.1835 455.423 48.2903C454.527 47.3336 453.404 46.5999 452.057 46.0896C450.709 45.5153 449.106 45.228 447.246 45.228C445.578 45.228 444.102 45.3874 442.819 45.7067C441.6 46.0256 440.478 46.4404 439.451 46.9508C438.425 47.3971 437.495 47.9394 436.661 48.5776C435.827 49.2154 435.025 49.8217 434.255 50.3959L429.059 45.0365ZM453.5 63.0277C451.447 63.0277 449.33 63.1552 447.149 63.4105C445.032 63.602 443.076 64.0168 441.28 64.6546C439.547 65.2928 438.104 66.1859 436.95 67.3341C435.859 68.4826 435.314 69.95 435.314 71.7364C435.314 74.3519 436.18 76.2341 437.912 77.3823C439.708 78.5308 442.114 79.1051 445.128 79.1051C447.502 79.1051 449.523 78.7222 451.191 77.9565C452.858 77.1273 454.206 76.0743 455.23 74.7987C456.259 73.5227 456.994 72.1188 457.444 70.5878C457.894 68.9929 458.12 67.43 458.12 65.8986V63.0277H453.5Z"></path><path d="M503.012 50.8743C501.987 49.5983 500.705 48.5457 499.162 47.716C497.687 46.8229 495.859 46.3765 493.677 46.3765C491.628 46.3765 489.832 46.8229 488.289 47.716C486.814 48.5457 486.079 49.7897 486.079 51.4485C486.079 52.7881 486.492 53.8727 487.328 54.7023C488.224 55.5315 489.253 56.2013 490.406 56.7116C491.628 57.2223 492.91 57.6048 494.256 57.8601C495.602 58.1155 496.759 58.3385 497.72 58.5299C499.58 58.9767 501.312 59.519 502.915 60.1568C504.583 60.795 505.997 61.6242 507.15 62.6449C508.368 63.6659 509.3 64.9099 509.939 66.377C510.646 67.8444 511 69.6307 511 71.7364C511 74.288 510.453 76.4891 509.365 78.3394C508.272 80.1257 506.861 81.5931 505.129 82.7413C503.397 83.8898 501.408 84.719 499.162 85.2293C496.984 85.7401 494.77 85.995 492.524 85.995C488.739 85.995 485.404 85.4207 482.518 84.2726C479.694 83.1241 477.162 81.0189 474.916 77.9565L481.458 72.5975C482.868 74.001 484.443 75.2451 486.175 76.3297C487.907 77.4142 490.021 77.9565 492.524 77.9565C493.613 77.9565 494.706 77.8606 495.795 77.6696C496.952 77.4142 497.945 77.0634 498.78 76.6166C499.676 76.1063 500.384 75.5004 500.894 74.7987C501.473 74.033 501.762 73.1718 501.762 72.2147C501.762 70.9387 501.344 69.8861 500.512 69.0569C499.741 68.2272 498.78 67.5894 497.623 67.1427C496.534 66.6323 495.349 66.2495 494.063 65.9945C492.845 65.6752 491.756 65.4203 490.792 65.2288C488.932 64.7821 487.168 64.2717 485.5 63.6975C483.832 63.1236 482.358 62.3579 481.072 61.4008C479.79 60.4441 478.765 59.2317 477.994 57.7642C477.226 56.2972 476.841 54.4789 476.841 52.3097C476.841 49.9491 477.323 47.9075 478.283 46.1851C479.308 44.3987 480.626 42.9313 482.229 41.7832C483.897 40.6347 485.757 39.7735 487.81 39.1992C489.928 38.625 492.042 38.3379 494.159 38.3379C497.237 38.3379 500.191 38.9121 503.012 40.0604C505.836 41.2089 508.079 43.1227 509.75 45.8022L503.012 50.8743Z"></path></g><g class="nav_logo-text-2" style="transform: translate3d(0px, 0%, 0px) scale3d(1, 1, 1) rotateX(0deg) rotateY(0deg) rotateZ(0deg) skew(0deg, 0deg); transform-style: preserve-3d; opacity: 1;"><path d="M554.547 142.919C549.075 142.919 545.313 138.967 545.313 133.191C545.313 127.377 548.999 123.349 554.395 123.349C559.677 123.349 563.135 126.997 563.135 132.507V133.837L548.771 133.875C549.037 137.789 551.089 139.955 554.623 139.955C557.397 139.955 559.221 138.815 559.829 136.687H563.173C562.261 140.677 559.145 142.919 554.547 142.919ZM554.395 126.351C551.279 126.351 549.303 128.213 548.847 131.481H559.563C559.563 128.403 557.549 126.351 554.395 126.351Z"></path><path d="M544.094 123.729V126.997H542.498C539.116 126.997 537.026 129.049 537.026 132.621V142.463H533.454V123.919H536.798L537.026 126.731C537.786 124.793 539.648 123.501 542.194 123.501C542.84 123.501 543.372 123.577 544.094 123.729Z"></path><path d="M524.984 123.881H528.518V142.463H525.326L524.946 139.651C523.882 141.589 521.412 142.919 518.676 142.919C514.344 142.919 511.912 139.993 511.912 135.433V123.881H515.484V134.255C515.484 138.245 517.194 139.765 519.93 139.765C523.198 139.765 524.984 137.675 524.984 133.685V123.881Z"></path><path d="M483.192 142.463H479.62V123.881H482.812L483.154 126.313C484.104 124.565 486.08 123.349 488.702 123.349C491.59 123.349 493.642 124.793 494.592 127.111C495.466 124.793 497.708 123.349 500.596 123.349C504.852 123.349 507.436 126.009 507.436 130.303V142.463H503.94V131.177C503.94 128.251 502.306 126.579 499.798 126.579C497.1 126.579 495.314 128.479 495.314 131.443V142.463H491.78V131.139C491.78 128.213 490.184 126.617 487.676 126.617C484.978 126.617 483.192 128.479 483.192 131.443V142.463Z"></path><path d="M450.671 142.463H447.099V123.881H450.291L450.633 126.313C451.583 124.565 453.559 123.349 456.181 123.349C459.069 123.349 461.121 124.793 462.071 127.111C462.945 124.793 465.187 123.349 468.075 123.349C472.331 123.349 474.915 126.009 474.915 130.303V142.463H471.419V131.177C471.419 128.251 469.785 126.579 467.277 126.579C464.579 126.579 462.793 128.479 462.793 131.443V142.463H459.259V131.139C459.259 128.213 457.663 126.617 455.155 126.617C452.457 126.617 450.671 128.479 450.671 131.443V142.463Z"></path><path d="M424.05 133.153C424.05 127.415 428.154 123.387 433.74 123.387C439.288 123.387 443.392 127.415 443.392 133.153C443.392 138.891 439.288 142.919 433.74 142.919C428.154 142.919 424.05 138.891 424.05 133.153ZM427.66 133.153C427.66 137.029 430.13 139.727 433.74 139.727C437.312 139.727 439.82 137.029 439.82 133.153C439.82 129.277 437.312 126.579 433.74 126.579C430.13 126.579 427.66 129.277 427.66 133.153Z"></path><path d="M409.281 142.881C401.453 142.881 396.247 137.257 396.247 128.745C396.247 120.271 401.605 114.533 409.471 114.533C415.665 114.533 420.415 118.219 421.441 123.843H417.451C416.425 120.271 413.347 118.105 409.357 118.105C403.809 118.105 400.161 122.285 400.161 128.707C400.161 135.129 403.809 139.309 409.357 139.309C413.385 139.309 416.577 137.143 417.603 133.761H421.555C420.377 139.233 415.475 142.881 409.281 142.881Z"></path><path d="M366.664 150.785V147.859H369.058C370.768 147.859 372.136 147.593 373.01 145.237L373.656 143.451L366.17 123.881H369.932L375.328 138.853L380.838 123.881H384.524L375.746 146.643C374.492 149.835 372.63 151.165 369.78 151.165C368.602 151.165 367.614 151.013 366.664 150.785Z"></path><path d="M349.773 142.463H346.543V114.495H350.115V127.073C351.331 124.641 353.839 123.349 356.879 123.349C362.199 123.349 365.391 127.529 365.391 133.267C365.391 138.891 362.047 142.919 356.651 142.919C353.725 142.919 351.255 141.627 350.039 139.081L349.773 142.463ZM350.153 133.115C350.153 136.991 352.357 139.689 356.005 139.689C359.653 139.689 361.819 136.953 361.819 133.115C361.819 129.315 359.653 126.579 356.005 126.579C352.357 126.579 350.153 129.315 350.153 133.115Z"></path><path d="M321.309 142.919C315.913 142.919 312.645 138.891 312.645 133.229C312.645 127.529 315.951 123.349 321.461 123.349C324.311 123.349 326.705 124.603 327.959 126.883V114.495H331.493V142.463H328.301L327.997 139.081C326.781 141.627 324.273 142.919 321.309 142.919ZM322.031 139.689C325.679 139.689 327.921 136.991 327.921 133.115C327.921 129.315 325.679 126.579 322.031 126.579C318.383 126.579 316.255 129.315 316.255 133.115C316.255 136.953 318.383 139.689 322.031 139.689Z"></path><path d="M301.531 142.919C296.059 142.919 292.297 138.967 292.297 133.191C292.297 127.377 295.983 123.349 301.379 123.349C306.661 123.349 310.119 126.997 310.119 132.507V133.837L295.755 133.875C296.021 137.789 298.073 139.955 301.607 139.955C304.381 139.955 306.205 138.815 306.813 136.687H310.157C309.245 140.677 306.129 142.919 301.531 142.919ZM301.379 126.351C298.263 126.351 296.287 128.213 295.831 131.481H306.547C306.547 128.403 304.533 126.351 301.379 126.351Z"></path><path d="M291.077 123.729V126.997H289.481C286.099 126.997 284.009 129.049 284.009 132.621V142.463H280.437V123.919H283.781L284.009 126.731C284.769 124.793 286.631 123.501 289.177 123.501C289.823 123.501 290.355 123.577 291.077 123.729Z"></path><path d="M268.107 142.919C262.635 142.919 258.873 138.967 258.873 133.191C258.873 127.377 262.559 123.349 267.955 123.349C273.237 123.349 276.695 126.997 276.695 132.507V133.837L262.331 133.875C262.597 137.789 264.649 139.955 268.183 139.955C270.957 139.955 272.781 138.815 273.389 136.687H276.733C275.821 140.677 272.705 142.919 268.107 142.919ZM267.955 126.351C264.839 126.351 262.863 128.213 262.407 131.481H273.123C273.123 128.403 271.109 126.351 267.955 126.351Z"></path><path d="M236.011 142.463L229.931 123.881H233.617L236.695 133.533C237.113 134.901 237.493 136.307 237.835 137.941C238.139 136.307 238.633 134.749 239.051 133.533L242.167 123.881H245.815L248.893 133.533C249.197 134.445 249.805 136.611 250.109 137.941C250.413 136.459 250.755 135.167 251.287 133.533L254.403 123.881H258.127L251.781 142.463H248.399L245.169 132.507C244.561 130.645 244.181 129.201 243.991 128.175C243.801 129.087 243.459 130.303 242.775 132.545L239.545 142.463H236.011Z"></path><path d="M209.826 133.153C209.826 127.415 213.93 123.387 219.516 123.387C225.064 123.387 229.168 127.415 229.168 133.153C229.168 138.891 225.064 142.919 219.516 142.919C213.93 142.919 209.826 138.891 209.826 133.153ZM213.436 133.153C213.436 137.029 215.906 139.727 219.516 139.727C223.088 139.727 225.596 137.029 225.596 133.153C225.596 129.277 223.088 126.579 219.516 126.579C215.906 126.579 213.436 129.277 213.436 133.153Z"></path><path d="M199.678 132.659H192.724V142.463H189V114.989H199.678C205.074 114.989 208.532 118.523 208.532 123.805C208.532 128.935 205.036 132.659 199.678 132.659ZM199.032 118.333H192.724V129.315H198.88C202.566 129.315 204.618 127.149 204.618 123.767C204.618 120.309 202.528 118.333 199.032 118.333Z"></path></g></svg>